<?xml version="1.0" standalone="no"?>
<!DOCTYPE svg PUBLIC "-//W3C//DTD SVG 20010904//EN"
 "http://www.w3.org/TR/2001/REC-SVG-20010904/DTD/svg10.dtd">
<svg version="1.0" xmlns="http://www.w3.org/2000/svg"
 width="540.000000pt" height="540.000000pt" viewBox="0 0 540.000000 540.000000"
 preserveAspectRatio="xMidYMid meet">
<metadata>
Created by potrace 1.11, written by Peter Selinger 2001-2013
</metadata>
<g transform="translate(0.000000,540.000000) scale(0.100000,-0.100000)"
fill="#000000" stroke="none">
<path d="M2812 5251 c-29 -10 -63 -27 -75 -38 -43 -39 -121 -57 -216 -48 -47
5 -111 9 -141 10 -30 0 -67 5 -82 9 -22 6 -49 -3 -143 -48 -98 -47 -118 -61
-131 -90 -23 -48 -100 -70 -217 -61 -75 6 -85 5 -116 -17 -54 -36 -74 -70 -77
-130 -1 -29 -3 -59 -3 -66 -1 -9 -11 -11 -36 -6 -31 6 -41 2 -80 -32 -24 -22
-60 -51 -78 -66 -23 -18 -39 -43 -47 -72 -11 -39 -10 -49 8 -89 11 -24 25 -48
31 -51 25 -16 10 -34 -34 -39 -57 -6 -85 -30 -85 -72 0 -26 11 -43 63 -91 34
-33 84 -75 110 -93 40 -27 48 -37 42 -55 -14 -49 -17 -96 -6 -129 16 -47 73
-97 111 -97 16 0 31 -4 34 -8 3 -5 -28 -31 -68 -59 -483 -336 -799 -864 -866
-1448 -13 -115 -13 -335 0 -450 59 -515 317 -999 709 -1326 625 -524 1493
-629 2214 -267 909 454 1340 1488 1026 2455 -134 411 -413 784 -775 1036 l-74
51 34 28 c44 36 76 88 76 122 0 15 10 40 21 56 18 23 22 43 22 101 0 63 -3 75
-23 91 -12 10 -30 18 -39 18 -9 0 -38 11 -65 25 -27 14 -63 25 -79 25 -28 0
-29 2 -23 33 4 17 10 68 13 113 9 128 -21 189 -115 233 l-50 23 -4 57 c-5 71
-60 186 -124 259 -37 43 -51 52 -78 52 -20 0 -40 8 -51 20 -9 10 -34 25 -54
31 -20 7 -52 24 -71 39 -41 32 -72 44 -163 65 -89 20 -160 19 -225 -4z"/>
</g>
</svg>
