<?xml version="1.0" standalone="no"?>
<!DOCTYPE svg PUBLIC "-//W3C//DTD SVG 20010904//EN"
 "http://www.w3.org/TR/2001/REC-SVG-20010904/DTD/svg10.dtd">
<svg version="1.0" xmlns="http://www.w3.org/2000/svg"
 width="507.000000pt" height="507.000000pt" viewBox="0 0 507.000000 507.000000"
 preserveAspectRatio="xMidYMid meet">
<metadata>
Created by potrace 1.11, written by Peter Selinger 2001-2013
</metadata>
<g transform="translate(0.000000,507.000000) scale(0.100000,-0.100000)"
fill="#000000" stroke="none">
<path d="M1923 4669 c-126 -16 -293 -82 -444 -177 -35 -22 -89 -47 -119 -55
-66 -19 -151 -69 -226 -133 -108 -93 -270 -309 -258 -346 3 -11 0 -18 -9 -18
-23 0 -91 -65 -124 -121 -88 -148 -89 -374 -1 -649 17 -52 36 -106 43 -120 11
-21 10 -39 -2 -105 -8 -44 -16 -141 -17 -215 -1 -115 2 -146 22 -207 36 -115
106 -191 198 -215 39 -11 43 -15 59 -67 10 -31 28 -77 41 -102 l23 -46 -52
-24 c-175 -81 -353 -242 -485 -438 -31 -47 -64 -92 -73 -102 -52 -53 -152
-455 -279 -1118 -27 -145 -50 -273 -50 -284 0 -19 10 -19 496 -12 372 6 495 5
490 -4 -5 -8 459 -11 1847 -11 l1853 0 17 35 c31 65 42 164 41 375 0 226 -15
325 -75 504 -64 191 -213 444 -343 584 -142 152 -439 303 -816 417 -85 26
-191 58 -235 71 l-79 25 -21 -27 c-58 -75 -78 -94 -101 -94 -28 0 -28 5 -8
-118 22 -130 22 -359 0 -482 -46 -258 -160 -476 -350 -665 -162 -161 -359
-282 -499 -306 -227 -38 -354 44 -491 319 -46 92 -110 265 -104 282 2 5 28 -7
58 -26 89 -56 155 -77 245 -78 69 -1 95 4 189 38 225 81 396 186 547 338 254
254 399 637 399 1056 0 105 -9 142 -36 142 -11 0 -14 -12 -13 -52 3 -65 -26
-292 -47 -373 -9 -33 -33 -114 -54 -180 -21 -66 -47 -149 -57 -185 -23 -84
-113 -218 -190 -285 -95 -83 -127 -104 -164 -107 -30 -3 -34 0 -32 20 2 13 -4
36 -12 52 -8 16 -22 64 -30 107 -24 130 -34 144 -139 201 -102 56 -199 79
-289 68 -29 -4 -108 -2 -177 3 -79 7 -128 7 -134 1 -6 -6 -22 -10 -37 -10 -15
0 -32 -7 -40 -16 -7 -8 -31 -25 -53 -36 -22 -11 -46 -27 -54 -34 -7 -8 -17
-14 -20 -14 -4 0 -18 -20 -31 -43 -23 -42 -23 -47 -12 -118 7 -41 15 -88 18
-106 l5 -32 -55 52 c-51 47 -107 132 -107 162 0 24 -103 105 -117 91 -3 -3 22
-58 56 -123 34 -65 53 -107 42 -93 -32 41 -117 219 -140 294 -12 38 -24 93
-27 122 l-7 54 49 -22 c42 -19 65 -23 164 -22 130 0 172 12 257 70 85 58 151
180 183 339 6 33 18 70 26 83 32 50 104 12 123 -64 40 -157 166 -290 328 -345
95 -33 243 -33 326 0 159 63 252 201 264 394 6 96 -1 84 121 189 l31 28 36
-21 35 -21 41 31 c48 34 257 340 279 406 20 59 15 155 -9 211 l-21 48 -38 -35
c-87 -80 -91 -78 -11 6 98 102 133 158 149 232 29 134 -64 305 -242 445 l-77
61 19 36 c58 115 65 253 17 347 -68 133 -249 238 -498 289 -78 16 -87 16 -163
-1 -59 -13 -119 -17 -222 -16 -142 1 -142 1 -205 36 -98 53 -197 71 -316 55z
m883 -930 c16 -17 20 -43 25 -148 5 -110 10 -139 42 -232 42 -123 77 -280 86
-394 6 -75 12 -89 77 -210 l71 -130 -36 -19 c-47 -25 -112 -35 -164 -25 -23 5
-127 13 -231 18 l-189 10 -111 -29 c-61 -16 -131 -36 -156 -46 -83 -31 -333
-57 -353 -37 -4 4 -25 8 -48 10 -24 3 -58 17 -85 36 -39 27 -54 32 -102 31
-37 0 -71 -8 -97 -21 -28 -14 -68 -22 -130 -26 -49 -3 -119 -15 -155 -26 -35
-11 -65 -19 -67 -18 -1 2 11 37 27 78 16 40 29 66 30 57 0 -23 29 -23 45 -1
15 20 91 43 165 50 90 9 300 -28 373 -64 31 -16 33 -13 12 27 -18 36 -95 77
-210 113 -168 52 -267 45 -337 -25 -34 -34 -39 -36 -33 -16 4 12 19 41 35 63
15 22 30 61 34 87 12 77 63 135 137 152 22 5 30 -2 67 -59 48 -73 105 -125
171 -157 37 -18 63 -23 131 -23 78 0 91 3 160 37 103 51 115 61 100 88 l-11
21 -32 -24 c-100 -76 -218 -105 -302 -73 -63 25 -135 107 -174 200 -17 41 -31
79 -31 84 0 6 -13 42 -30 80 -38 90 -39 149 -5 218 14 28 38 63 54 78 l28 27
69 -52 c117 -88 160 -104 290 -104 110 0 111 0 200 44 77 38 104 59 202 158
82 81 131 122 175 145 134 68 247 87 283 47z m-1559 -1091 c-3 -8 -6 -5 -6 6
-1 11 2 17 5 13 3 -3 4 -12 1 -19z m1408 -92 c19 -8 55 -29 79 -45 50 -35 56
-37 56 -17 0 7 -26 28 -57 45 l-58 32 50 -5 c28 -4 75 -18 105 -34 45 -22 59
-36 79 -77 22 -43 25 -64 26 -150 0 -87 -3 -107 -26 -155 -38 -80 -71 -115
-149 -154 -96 -48 -185 -61 -277 -42 -214 44 -323 187 -323 424 0 64 22 91
105 128 68 30 73 30 49 2 l-19 -23 25 21 c60 51 110 59 110 19 0 -33 42 -75
74 -75 41 0 80 41 80 84 0 41 14 46 71 22z m-1223 -89 c-23 -23 -42 -47 -42
-52 1 -6 11 2 23 16 27 31 90 79 104 79 6 0 16 -14 23 -30 17 -41 46 -60 94
-60 31 0 45 7 71 34 31 34 33 34 55 18 73 -54 93 -101 93 -222 1 -138 -49
-244 -144 -302 -57 -36 -175 -61 -254 -55 -55 4 -164 41 -166 56 0 3 -1 45 -2
93 -1 47 -5 90 -10 94 -4 4 -30 2 -58 -5 -27 -7 -52 -11 -55 -8 -2 2 -14 43
-26 89 l-21 85 25 73 24 73 65 25 c54 20 96 28 229 41 8 0 -5 -18 -28 -42z
m634 -817 c63 -8 110 -9 155 -2 62 10 65 9 126 -25 34 -18 78 -52 97 -73 30
-33 36 -48 36 -83 0 -51 -36 -162 -74 -227 -14 -25 -26 -57 -26 -72 0 -35 -20
-46 -140 -74 l-95 -22 -75 24 c-41 13 -85 24 -97 24 -25 0 -124 63 -178 114
-26 25 -35 40 -31 54 5 13 -7 39 -35 80 l-42 61 17 68 c22 89 34 105 98 136
87 42 75 41 264 17z"/>
<path d="M2575 2885 c-28 -6 -81 -24 -117 -38 -37 -15 -77 -27 -90 -27 -40 0
-228 -99 -228 -120 0 -3 13 -13 29 -23 28 -16 32 -16 148 22 207 68 393 90
488 56 21 -8 41 -12 43 -10 6 5 -26 58 -56 92 -51 59 -115 73 -217 48z"/>
<path d="M2645 2428 c-84 -43 -163 -48 -228 -15 -26 14 -42 18 -35 10 6 -8 30
-24 52 -35 71 -36 169 -15 261 56 29 23 17 19 -50 -16z"/>
<path d="M1474 2344 c27 -24 35 -26 105 -22 43 2 91 12 111 21 25 13 28 16 10
12 -14 -3 -62 -8 -106 -12 -64 -4 -88 -2 -115 11 l-34 16 29 -26z"/>
<path d="M1870 1520 c147 -32 203 -33 320 -6 l105 24 -255 0 -255 0 85 -18z"/>
</g>
</svg>
