<?xml version="1.0" standalone="no"?>
<!DOCTYPE svg PUBLIC "-//W3C//DTD SVG 20010904//EN"
 "http://www.w3.org/TR/2001/REC-SVG-20010904/DTD/svg10.dtd">
<svg version="1.0" xmlns="http://www.w3.org/2000/svg"
 width="982.000000pt" height="1001.000000pt" viewBox="0 0 982.000000 1001.000000"
 preserveAspectRatio="xMidYMid meet">
<metadata>
Created by potrace 1.15, written by Peter Selinger 2001-2017
</metadata>
<g transform="translate(0.000000,1001.000000) scale(0.100000,-0.100000)"
fill="#000000" stroke="none">
<path d="M7634 8454 c-819 -856 -1503 -1572 -1519 -1591 l-31 -35 -1169 7
-1170 8 -1480 1559 c-814 858 -1483 1568 -1487 1579 -9 22 -40 25 -58 4 -9
-10 -9 -22 -1 -47 6 -18 158 -1164 336 -2546 260 -2010 323 -2517 314 -2535
-6 -12 -315 -588 -686 -1279 -371 -692 -677 -1265 -679 -1275 -3 -10 6 -30 18
-44 16 -19 732 -356 2426 -1143 l2402 -1116 80 0 81 0 847 389 c466 214 1547
725 2402 1135 l1555 745 3 50 c3 49 -9 71 -655 1258 l-658 1208 2 70 c1 39
150 1195 332 2570 182 1375 328 2507 325 2515 -4 8 -6 21 -5 28 2 15 -17 42
-29 42 -4 0 -678 -700 -1496 -1556z m1145 -1029 c-180 -1364 -328 -2489 -327
-2500 0 -11 -3 -49 -6 -85 l-7 -65 662 -1215 c364 -668 664 -1222 666 -1231 6
-20 -2824 -1377 -3994 -1914 l-843 -387 -2422 1126 c-1333 620 -2427 1131
-2432 1136 -5 5 273 534 669 1270 373 695 682 1274 687 1289 8 20 -69 634
-311 2505 -177 1363 -320 2483 -319 2488 2 6 658 -679 1457 -1521 799 -841
1460 -1532 1469 -1535 9 -2 539 -7 1177 -11 638 -4 1167 -8 1176 -11 12 -3
472 473 1520 1569 827 866 1505 1573 1505 1573 1 -1 -146 -1117 -327 -2481z"/>
<path d="M1144 9085 c-4 -8 120 -982 275 -2163 l281 -2147 -614 -1155 c-338
-635 -620 -1168 -627 -1183 -10 -23 -10 -30 2 -41 19 -18 4460 -2126 4479
-2126 13 0 4363 2074 4470 2131 22 11 35 26 34 37 0 10 -289 548 -642 1194
l-642 1176 285 2128 c157 1171 283 2134 280 2141 -2 7 -13 13 -23 13 -13 0
-457 -455 -1247 -1277 l-1228 -1278 -1292 -5 -1292 -5 -1228 1288 c-793 831
-1234 1287 -1247 1287 -10 0 -21 -7 -24 -15z m1277 -1365 l1192 -1250 1301 0
c715 0 1311 3 1323 6 13 4 553 558 1202 1233 648 674 1187 1234 1198 1243 19
17 19 17 16 -10 -21 -149 -555 -4112 -556 -4127 -1 -11 285 -546 636 -1188
351 -643 637 -1170 635 -1173 -3 -2 -416 104 -919 235 -503 132 -939 246 -971
254 l-56 15 -801 -649 c-440 -357 -806 -649 -813 -649 -7 0 -204 81 -438 180
-233 99 -434 180 -445 180 -12 0 -208 -76 -435 -170 -227 -93 -419 -170 -426
-170 -6 0 -364 286 -794 635 -490 397 -790 635 -804 635 -11 0 -448 -110 -971
-244 -522 -135 -950 -244 -951 -243 -1 1 272 517 607 1147 335 630 609 1150
609 1156 0 14 -537 4122 -546 4178 -4 26 -3 36 4 32 6 -4 547 -569 1203 -1256z
m839 -5476 c1153 -937 1650 -1334 1670 -1334 30 0 911 688 1711 1337 422 342
775 626 785 632 15 10 188 -33 919 -224 495 -129 908 -238 918 -242 12 -6
-596 -301 -2153 -1046 l-2170 -1039 -2186 1039 c-1202 571 -2180 1039 -2172
1041 7 1 429 110 938 242 509 131 930 239 935 239 6 1 368 -290 805 -645z
m2082 -456 c225 -95 407 -176 405 -180 -6 -18 -811 -629 -823 -624 -19 7 -804
637 -804 645 0 7 778 329 800 330 8 1 198 -77 422 -171z"/>
<path d="M7492 7247 c-547 -547 -682 -687 -682 -708 0 -19 128 -176 516 -635
283 -335 526 -620 540 -634 21 -22 26 -23 39 -9 19 19 312 2625 298 2648 -5 8
-14 16 -19 18 -5 2 -316 -304 -692 -680z m513 -658 c-74 -668 -136 -1217 -138
-1221 -1 -6 -879 1023 -976 1144 l-24 30 634 634 c348 348 634 632 636 630 2
-1 -58 -549 -132 -1217z"/>
<path d="M1686 7871 c-16 -18 -9 -85 139 -1292 85 -701 159 -1277 164 -1282 5
-5 17 -7 27 -5 21 4 1044 1182 1044 1202 0 14 -1336 1396 -1349 1396 -5 0 -16
-9 -25 -19z m848 -908 c246 -254 448 -464 448 -468 0 -7 -946 -1104 -949
-1101 -2 2 -293 2365 -293 2379 0 7 240 -238 794 -810z"/>
<path d="M7370 4321 c-8 -5 -391 -135 -850 -291 -459 -155 -843 -286 -852
-292 -21 -10 -24 -43 -5 -55 6 -4 208 -90 447 -191 239 -101 440 -186 446
-188 10 -5 823 922 856 975 9 15 9 23 -1 35 -15 18 -20 19 -41 7z m-92 -108
c-490 -568 -719 -833 -725 -836 -11 -6 -795 325 -788 332 6 6 1501 518 1519
520 5 0 2 -7 -6 -16z"/>
<path d="M2447 4303 c-4 -3 -7 -12 -7 -19 0 -7 177 -215 393 -461 215 -246
408 -467 427 -490 19 -24 42 -43 51 -43 17 0 884 352 909 370 8 5 25 14 38 20
24 11 29 32 10 47 -18 14 -1770 583 -1795 583 -11 0 -23 -3 -26 -7z m1013
-373 c377 -122 688 -225 692 -229 6 -5 -759 -324 -810 -337 -14 -4 -93 79
-354 378 -184 211 -354 404 -377 430 l-41 46 102 -32 c57 -18 411 -133 788
-256z"/>
</g>
</svg>
